<svg class="bob" font-family="Dank Mono" font-size="16" height="272" width="320" xmlns="http://www.w3.org/2000/svg">
<defs>
<marker id="triangle" markerHeight="8" markerWidth="8" orient="auto" refX="4" refY="2" viewBox="0 0 8 4">
<polygon fill="black" points="0,0 0,4 8,2 0,0"></polygon>
</marker>
<marker id="clear_triangle" markerHeight="10" markerWidth="10" orient="auto" refX="1" refY="7" viewBox="0 0 20 14">
<polygon fill="none" points="2,2 2,12 18,7 2,2" stroke="black" stroke-width="2"></polygon>
</marker>
<marker id="circle" markerHeight="5" markerWidth="5" orient="auto" refX="10" refY="10" viewBox="0 0 20 20">
<circle cx="10" cy="10" fill="black" r="8"></circle>
</marker>
<marker id="square" markerHeight="5" markerWidth="5" orient="auto" refX="10" refY="10" viewBox="0 0 20 20">
<rect fill="black" height="20" width="20" x="0" y="0"></rect>
</marker>
<marker id="open_circle" markerHeight="10" markerWidth="10" orient="auto" refX="10" refY="10" viewBox="0 0 20 20">
<circle cx="10" cy="10" fill="white" r="4" stroke="black" stroke-width="2"></circle>
</marker>
<marker id="big_open_circle" markerHeight="20" markerWidth="20" orient="auto" refX="20" refY="20" viewBox="0 0 40 40">
<circle cx="20" cy="20" fill="white" r="6" stroke="black" stroke-width="2"></circle>
</marker>
</defs>
<style type="text/css">

    line,path {
      stroke: black;
      stroke-width: 2;
      stroke-opacity: 1;
      fill-opacity: 1;
      stroke-linecap: round;
      stroke-linejoin: miter;
    }
    line.dashed {
        stroke-dasharray: 5;
    }
    circle.solid {
      fill:black;
      stroke: black;
      stroke-width: 2;
      stroke-opacity: 1;
      fill-opacity: 1;
      stroke-linecap: round;
      stroke-linejoin: miter;
    }
    circle.open {
      fill:none;
      stroke: black;
      stroke-width: 2;
      stroke-opacity: 1;
      fill-opacity: 1;
      stroke-linecap: round;
      stroke-linejoin: miter;
    }
    tspan.head{
        fill: none;
        stroke: none;
    }

</style>
<rect fill="white" height="272" width="320" x="0" y="0"></rect>
<g>
<line x1="4" x2="4" y1="200" y2="264"></line>
<line x1="4" x2="44" y1="200" y2="200"></line>
<line x1="4" x2="100" y1="264" y2="264"></line>
<line x1="44" x2="100" y1="200" y2="200"></line>
<line x1="100" x2="100" y1="200" y2="232"></line>
<line x1="100" x2="100" y1="232" y2="264"></line>
<line x1="100" x2="260" y1="232" y2="232"></line>
<line x1="260" x2="260" y1="176" y2="232"></line>
</g>
<g>
<line x1="12" x2="12" y1="8" y2="72"></line>
<line x1="12" x2="100" y1="8" y2="8"></line>
<line x1="12" x2="44" y1="72" y2="72"></line>
<line marker-end="url(#triangle)" x1="44" x2="44" y1="72" y2="188"></line>
<line x1="44" x2="100" y1="72" y2="72"></line>
<line x1="100" x2="100" y1="8" y2="40"></line>
<line x1="100" x2="100" y1="40" y2="72"></line>
<line x1="100" x2="104" y1="40" y2="40"></line>
</g>
<g>
<line marker-end="url(#triangle)" x1="112" x2="108" y1="40" y2="40"></line>
<line x1="112" x2="236" y1="40" y2="40"></line>
<line x1="236" x2="236" y1="40" y2="88"></line>
<line x1="236" x2="316" y1="88" y2="88"></line>
<line x1="316" x2="316" y1="88" y2="152"></line>
</g>
<g>
<line x1="204" x2="204" y1="88" y2="152"></line>
<line x1="204" x2="236" y1="88" y2="88"></line>
<line x1="204" x2="260" y1="152" y2="152"></line>
<line x1="260" x2="316" y1="152" y2="152"></line>
</g>
<g>
<line marker-end="url(#triangle)" x1="260" x2="260" y1="176" y2="164"></line>
</g>
<g>
<text x="17" y="236">
Ressource
</text>
</g>
<g>
<text x="25" y="44">
Endpoint
</text>
</g>
<g>
<text x="217" y="124">
middlewares
</text>
</g>
</svg>
