<svg class="bob" font-family="Dank Mono" font-size="16" height="208" width="248" xmlns="http://www.w3.org/2000/svg">
<defs>
<marker id="triangle" markerHeight="8" markerWidth="8" orient="auto" refX="4" refY="2" viewBox="0 0 8 4">
<polygon fill="black" points="0,0 0,4 8,2 0,0"></polygon>
</marker>
<marker id="clear_triangle" markerHeight="10" markerWidth="10" orient="auto" refX="1" refY="7" viewBox="0 0 20 14">
<polygon fill="none" points="2,2 2,12 18,7 2,2" stroke="black" stroke-width="2"></polygon>
</marker>
<marker id="circle" markerHeight="5" markerWidth="5" orient="auto" refX="10" refY="10" viewBox="0 0 20 20">
<circle cx="10" cy="10" fill="black" r="8"></circle>
</marker>
<marker id="square" markerHeight="5" markerWidth="5" orient="auto" refX="10" refY="10" viewBox="0 0 20 20">
<rect fill="black" height="20" width="20" x="0" y="0"></rect>
</marker>
<marker id="open_circle" markerHeight="10" markerWidth="10" orient="auto" refX="10" refY="10" viewBox="0 0 20 20">
<circle cx="10" cy="10" fill="white" r="4" stroke="black" stroke-width="2"></circle>
</marker>
<marker id="big_open_circle" markerHeight="20" markerWidth="20" orient="auto" refX="20" refY="20" viewBox="0 0 40 40">
<circle cx="20" cy="20" fill="white" r="6" stroke="black" stroke-width="2"></circle>
</marker>
</defs>
<style type="text/css">

    line,path {
      stroke: black;
      stroke-width: 2;
      stroke-opacity: 1;
      fill-opacity: 1;
      stroke-linecap: round;
      stroke-linejoin: miter;
    }
    line.dashed {
        stroke-dasharray: 5;
    }
    circle.solid {
      fill:black;
      stroke: black;
      stroke-width: 2;
      stroke-opacity: 1;
      fill-opacity: 1;
      stroke-linecap: round;
      stroke-linejoin: miter;
    }
    circle.open {
      fill:none;
      stroke: black;
      stroke-width: 2;
      stroke-opacity: 1;
      fill-opacity: 1;
      stroke-linecap: round;
      stroke-linejoin: miter;
    }
    tspan.head{
        fill: none;
        stroke: none;
    }
    
</style>
<rect fill="white" height="208" width="248" x="0" y="0"></rect>
<g>
<line x1="4" x2="4" y1="8" y2="72"></line>
<line x1="4" x2="68" y1="8" y2="8"></line>
<line x1="4" x2="68" y1="72" y2="72"></line>
<line x1="68" x2="68" y1="8" y2="40"></line>
<line x1="68" x2="68" y1="40" y2="72"></line>
<line x1="68" x2="72" y1="40" y2="40"></line>
<line class="dashed" fill="none" x1="72" x2="128" y1="40" y2="40"></line>
</g>
<g>
<line marker-end="url(#triangle)" x1="128" x2="132" y1="40" y2="40"></line>
</g>
<g>
<line x1="140" x2="140" y1="8" y2="40"></line>
<line x1="140" x2="244" y1="8" y2="8"></line>
<line x1="140" x2="136" y1="40" y2="40"></line>
<line x1="140" x2="140" y1="40" y2="72"></line>
<line x1="140" x2="196" y1="72" y2="72"></line>
<line marker-end="url(#triangle)" x1="196" x2="196" y1="72" y2="124"></line>
<line x1="196" x2="244" y1="72" y2="72"></line>
<line x1="244" x2="244" y1="8" y2="72"></line>
</g>
<g>
<line x1="140" x2="140" y1="136" y2="200"></line>
<line x1="140" x2="196" y1="136" y2="136"></line>
<line x1="140" x2="244" y1="200" y2="200"></line>
<line x1="196" x2="244" y1="136" y2="136"></line>
<line x1="244" x2="244" y1="136" y2="200"></line>
</g>
<g>
<text x="17" y="44">
Sagas
</text>
</g>
<g>
<text x="89" y="28">
Use
</text>
</g>
<g>
<text x="121" y="108">
Depends
</text>
</g>
<g>
<text x="153" y="44">
Ressources
</text>
</g>
<g>
<text x="153" y="172">
Endpoints
</text>
</g>
</svg>
